<svg xmlns="http://www.w3.org/2000/svg" xmlns:xlink="http://www.w3.org/1999/xlink" width="100" zoomAndPan="magnify" viewBox="0 0 75 37.5" height="50" preserveAspectRatio="xMidYMid meet" version="1.0"><defs><clipPath id="efc3ee542c"><path d="M 3 1.171875 L 68 1.171875 L 68 35.957031 L 3 35.957031 Z M 3 1.171875 " clip-rule="nonzero"/></clipPath></defs><path fill="#ffffff" d="M 57.800781 20.464844 L 57.207031 19.570312 C 56.945312 19.175781 56.40625 19.066406 56.011719 19.328125 L 55.746094 19.503906 C 56.304688 20.566406 56.6875 21.535156 56.953125 22.414062 L 57.554688 21.664062 C 57.953125 21.402344 58.0625 20.863281 57.800781 20.464844 " fill-opacity="1" fill-rule="nonzero"/><path fill="#ffffff" d="M 53.59375 17.507812 C 50.902344 19.199219 48.074219 20.816406 45.191406 22.371094 C 50.546875 25.246094 56.402344 28.382812 56.402344 28.382812 C 56.402344 28.382812 58.359375 24.394531 53.601562 17.515625 C 53.597656 17.515625 53.597656 17.511719 53.59375 17.507812 " fill-opacity="1" fill-rule="nonzero"/><g clip-path="url(#efc3ee542c)"><path fill="#ffffff" d="M 66.558594 1.296875 C 65.757812 1.171875 64.660156 1.410156 63.496094 1.8125 C 63.496094 1.8125 63.488281 1.8125 63.484375 1.8125 C 63.445312 1.828125 60.527344 3 58.472656 3.984375 C 56.402344 4.976562 57.359375 3.167969 57.359375 3.167969 C 57.359375 3.167969 58.800781 2.222656 60.847656 1.792969 C 60.46875 1.832031 60.097656 1.878906 59.753906 1.945312 C 56.664062 2.527344 55.832031 2.976562 48.238281 8.121094 C 47.871094 8.367188 47.460938 8.640625 47.03125 8.925781 C 48.332031 8.890625 49.570312 8.851562 50.683594 8.804688 L 52.113281 8.742188 L 51.367188 9.960938 C 51.257812 10.144531 48.601562 14.445312 44.882812 17.476562 C 41.238281 20.449219 38.265625 21.097656 37.941406 21.164062 L 37.753906 21.199219 L 30.753906 19.1875 C 24.375 23.121094 18.941406 26.410156 18.941406 26.410156 L 6.769531 26.269531 L 3 27.828125 C 3 27.828125 8.765625 32.28125 12.425781 33.648438 L 13.230469 34.914062 C 13.683594 35.621094 14.628906 35.828125 15.335938 35.378906 L 18.527344 33.34375 C 21.839844 32.324219 26.15625 30.3125 31.496094 27.785156 C 39.320312 24.078125 49.417969 19.207031 57.636719 13.722656 C 57.644531 13.71875 57.652344 13.714844 57.664062 13.710938 C 67.101562 8.605469 69.15625 1.699219 66.558594 1.296875 " fill-opacity="1" fill-rule="nonzero"/></g><path fill="#ffffff" d="M 34.363281 8.941406 C 34.359375 8.933594 34.355469 8.929688 34.355469 8.925781 L 33.191406 7.429688 C 32.679688 6.769531 31.714844 6.648438 31.050781 7.160156 L 28.683594 9.003906 C 30.410156 8.929688 32.355469 8.921875 34.363281 8.941406 " fill-opacity="1" fill-rule="nonzero"/><path fill="#ffffff" d="M 50.714844 9.5625 C 50.714844 9.5625 48.0625 13.902344 44.402344 16.882812 C 40.742188 19.867188 37.785156 20.417969 37.785156 20.417969 L 16.824219 14.382812 C 16.824219 14.382812 18.5 11.597656 24.101562 10.300781 C 29.707031 9.003906 43.492188 9.875 50.714844 9.5625 " fill-opacity="1" fill-rule="nonzero"/></svg>